<svg width="28" height="13" viewBox="0 0 28 13" fill="none" xmlns="http://www.w3.org/2000/svg">
<path opacity="0.2" d="M0.7724 2.66667C0.7724 1.47005 1.74245 0.5 2.93907 0.5H22.6057C23.8024 0.5 24.7724 1.47005 24.7724 2.66667V10.3333C24.7724 11.53 23.8024 12.5 22.6057 12.5H2.93907C1.74245 12.5 0.7724 11.53 0.7724 10.3333V2.66667Z" stroke="white"/>
<path opacity="0.2" d="M25.9224 4V8C26.7272 7.66122 27.2505 6.87313 27.2505 6C27.2505 5.12687 26.7272 4.33878 25.9224 4Z" fill="white"/>
<path d="M2.57239 3.66634C2.57239 2.92996 3.16934 2.33301 3.90572 2.33301H21.439C22.1754 2.33301 22.7723 2.92996 22.7723 3.66634V9.32967C22.7723 10.0661 22.1754 10.663 21.439 10.663H3.90572C3.16934 10.663 2.57239 10.0661 2.57239 9.32967V3.66634Z" fill="white"/>
</svg>
