<svg width="12" height="14" viewBox="0 0 12 14" fill="none" xmlns="http://www.w3.org/2000/svg">
<path d="M8.66669 1V3.66667M3.33335 1V3.66667M0.666687 6.33333H11.3334M5.33335 9H6.00002V11M0.666687 3.66667C0.666687 3.31304 0.807163 2.97391 1.05721 2.72386C1.30726 2.47381 1.6464 2.33333 2.00002 2.33333H10C10.3536 2.33333 10.6928 2.47381 10.9428 2.72386C11.1929 2.97391 11.3334 3.31304 11.3334 3.66667V11.6667C11.3334 12.0203 11.1929 12.3594 10.9428 12.6095C10.6928 12.8595 10.3536 13 10 13H2.00002C1.6464 13 1.30726 12.8595 1.05721 12.6095C0.807163 12.3594 0.666687 12.0203 0.666687 11.6667V3.66667Z" stroke="#ACB5BB" stroke-width="1.3" stroke-linecap="round" stroke-linejoin="round"/>
</svg>
