<svg width="12" height="14" viewBox="0 0 12 14" fill="none" xmlns="http://www.w3.org/2000/svg">
<path d="M8.66666 1V3.66667M3.33332 1V3.66667M0.666656 6.33333H11.3333M0.666656 3.66667C0.666656 3.31304 0.807132 2.97391 1.05718 2.72386C1.30723 2.47381 1.64637 2.33333 1.99999 2.33333H9.99999C10.3536 2.33333 10.6927 2.47381 10.9428 2.72386C11.1928 2.97391 11.3333 3.31304 11.3333 3.66667V11.6667C11.3333 12.0203 11.1928 12.3594 10.9428 12.6095C10.6927 12.8595 10.3536 13 9.99999 13H1.99999C1.64637 13 1.30723 12.8595 1.05718 12.6095C0.807132 12.3594 0.666656 12.0203 0.666656 11.6667V3.66667ZM5.33332 9.66667C5.33332 9.84348 5.40356 10.013 5.52859 10.1381C5.65361 10.2631 5.82318 10.3333 5.99999 10.3333C6.1768 10.3333 6.34637 10.2631 6.47139 10.1381C6.59642 10.013 6.66666 9.84348 6.66666 9.66667C6.66666 9.48986 6.59642 9.32029 6.47139 9.19526C6.34637 9.07024 6.1768 9 5.99999 9C5.82318 9 5.65361 9.07024 5.52859 9.19526C5.40356 9.32029 5.33332 9.48986 5.33332 9.66667Z" stroke="#0052B4" stroke-width="1.3" stroke-linecap="round" stroke-linejoin="round"/>
</svg>
