<svg width="35" height="34" viewBox="0 0 35 34" fill="none" xmlns="http://www.w3.org/2000/svg">
<path d="M17.5 34C26.8891 34 34.5 26.3891 34.5 17V5.1C34.5 3.7474 33.9627 2.45019 33.0063 1.49376C32.0499 0.53732 30.7526 0 29.4 0H18.35V7.4579C18.35 9.1596 18.4537 10.9225 19.3462 12.3709C19.9852 13.4089 20.8399 14.2974 21.8525 14.976C22.865 15.6546 24.0117 16.1074 25.2146 16.3038L25.5402 16.3565C25.6744 16.4024 25.7909 16.4891 25.8734 16.6045C25.9559 16.7199 26.0003 16.8582 26.0003 17C26.0003 17.1418 25.9559 17.2801 25.8734 17.3955C25.7909 17.5109 25.6744 17.5976 25.5402 17.6434L25.2146 17.6961C23.457 17.9833 21.8339 18.8152 20.5746 20.0746C19.3153 21.3339 18.4833 22.9569 18.1962 24.7146L18.1435 25.0401C18.0976 25.1744 18.0109 25.2909 17.8955 25.3734C17.7802 25.4559 17.6419 25.5002 17.5 25.5002C17.3582 25.5002 17.2199 25.4559 17.1045 25.3734C16.9892 25.2909 16.9025 25.1744 16.8566 25.0401L16.8039 24.7146C16.6074 23.5116 16.1545 22.365 15.4759 21.3525C14.7974 20.3399 13.9089 19.4852 12.8709 18.8462C11.4225 17.9537 9.65964 17.85 7.95794 17.85H0.520441C0.964991 26.8438 8.39654 34 17.5 34Z" fill="url(#paint0_linear_42_3217)"/>
<path d="M0.5 16.1501H7.9579C9.6596 16.1501 11.4225 16.0464 12.8709 15.1539C14.0031 14.4563 14.9562 13.5032 15.6538 12.371C16.5463 10.9226 16.65 9.1597 16.65 7.458V0.000102732H5.6C4.2474 0.000102732 2.95019 0.537423 1.99376 1.49386C1.03732 2.45029 0.5 3.7475 0.5 5.1001V16.1501Z" fill="url(#paint1_linear_42_3217)"/>
<defs>
<linearGradient id="paint0_linear_42_3217" x1="17.5" y1="0" x2="17.5" y2="34" gradientUnits="userSpaceOnUse">
<stop stop-color="#6E8AFC"/>
<stop offset="1" stop-color="#375DFB"/>
</linearGradient>
<linearGradient id="paint1_linear_42_3217" x1="17.5" y1="0" x2="17.5" y2="34" gradientUnits="userSpaceOnUse">
<stop stop-color="#6E8AFC"/>
<stop offset="1" stop-color="#375DFB"/>
</linearGradient>
</defs>
</svg>
