<svg width="14" height="14" viewBox="0 0 14 14" fill="none" xmlns="http://www.w3.org/2000/svg">
<path d="M6.05671 6.05794C5.8067 6.30804 5.66628 6.64721 5.66634 7.00085C5.6664 7.35448 5.80694 7.6936 6.05704 7.94361C6.30714 8.19362 6.64631 8.33404 6.99994 8.33398C7.35358 8.33392 7.6927 8.19338 7.94271 7.94328M10.1207 10.1154C9.18549 10.7005 8.1031 11.0073 7 11C4.6 11 2.6 9.66669 1 7.00002C1.848 5.58669 2.808 4.54802 3.88 3.88402M5.78667 3.12002C6.18603 3.03917 6.59254 2.99897 7 3.00002C9.4 3.00002 11.4 4.33335 13 7.00002C12.556 7.74002 12.0807 8.37802 11.5747 8.91335M1 1L13 13" stroke="#ACB5BB" stroke-width="1.3" stroke-linecap="round" stroke-linejoin="round"/>
</svg>
