<svg width="12" height="14" viewBox="0 0 12 14" fill="none" xmlns="http://www.w3.org/2000/svg">
<path d="M3.33334 6.33333V3.66667C3.33334 2.95942 3.6143 2.28115 4.11439 1.78105C4.61449 1.28095 5.29277 1 6.00001 1C6.70725 1 7.38553 1.28095 7.88563 1.78105C8.38573 2.28115 8.66668 2.95942 8.66668 3.66667V6.33333M1.33334 7.66667C1.33334 7.31304 1.47382 6.97391 1.72387 6.72386C1.97392 6.47381 2.31305 6.33333 2.66668 6.33333H9.33334C9.68697 6.33333 10.0261 6.47381 10.2762 6.72386C10.5262 6.97391 10.6667 7.31304 10.6667 7.66667V11.6667C10.6667 12.0203 10.5262 12.3594 10.2762 12.6095C10.0261 12.8595 9.68697 13 9.33334 13H2.66668C2.31305 13 1.97392 12.8595 1.72387 12.6095C1.47382 12.3594 1.33334 12.0203 1.33334 11.6667V7.66667ZM5.33334 9.66667C5.33334 9.84348 5.40358 10.013 5.52861 10.1381C5.65363 10.2631 5.8232 10.3333 6.00001 10.3333C6.17682 10.3333 6.34639 10.2631 6.47141 10.1381C6.59644 10.013 6.66668 9.84348 6.66668 9.66667C6.66668 9.48986 6.59644 9.32029 6.47141 9.19526C6.34639 9.07024 6.17682 9 6.00001 9C5.8232 9 5.65363 9.07024 5.52861 9.19526C5.40358 9.32029 5.33334 9.48986 5.33334 9.66667Z" stroke="#0052B4" stroke-width="1.3" stroke-linecap="round" stroke-linejoin="round"/>
</svg>
