<svg width="16" height="11" viewBox="0 0 16 11" fill="none" xmlns="http://www.w3.org/2000/svg">
<path fill-rule="evenodd" clip-rule="evenodd" d="M7.63661 2.29466C9.8525 2.29476 11.9837 3.1462 13.5896 4.67299C13.7105 4.79087 13.9038 4.78938 14.0229 4.66966L15.1789 3.50299C15.2392 3.44227 15.2729 3.36002 15.2724 3.27444C15.2719 3.18886 15.2373 3.10701 15.1763 3.04699C10.9612 -0.992553 4.31137 -0.992553 0.0962725 3.04699C0.0352139 3.10696 0.00057 3.18879 6.97078e-06 3.27437C-0.000556058 3.35995 0.0330082 3.44223 0.0932725 3.50299L1.24961 4.66966C1.36863 4.78956 1.56208 4.79105 1.68294 4.67299C3.28909 3.1461 5.4205 2.29466 7.63661 2.29466ZM7.63653 6.09023C8.85402 6.09016 10.0281 6.54269 10.9305 7.3599C11.0526 7.47588 11.2449 7.47337 11.3639 7.35423L12.5185 6.18757C12.5793 6.12637 12.6131 6.04335 12.6122 5.95709C12.6113 5.87083 12.5759 5.78851 12.5139 5.72857C9.76567 3.17218 5.50973 3.17218 2.76153 5.72857C2.69946 5.78851 2.66404 5.87087 2.66322 5.95716C2.66241 6.04345 2.69626 6.12646 2.7572 6.18757L3.91153 7.35423C4.03052 7.47337 4.2228 7.47588 4.34487 7.3599C5.24674 6.54323 6.41985 6.09074 7.63653 6.09023ZM9.94959 8.6438C9.95136 8.73031 9.91735 8.81371 9.8556 8.87432L7.85826 10.89C7.79971 10.9492 7.71989 10.9826 7.6366 10.9826C7.55331 10.9826 7.47348 10.9492 7.41493 10.89L5.41726 8.87432C5.35555 8.81367 5.32161 8.73024 5.32343 8.64373C5.32526 8.55722 5.36271 8.4753 5.42693 8.41732C6.7025 7.33843 8.57069 7.33843 9.84626 8.41732C9.91044 8.47535 9.94783 8.55729 9.94959 8.6438Z" fill="white"/>
</svg>
